<?xml version="1.0" encoding="UTF-8" standalone="no"?>
<svg
   xmlns:dc="http://purl.org/dc/elements/1.1/"
   xmlns:cc="http://creativecommons.org/ns#"
   xmlns:rdf="http://www.w3.org/1999/02/22-rdf-syntax-ns#"
   xmlns:svg="http://www.w3.org/2000/svg"
   xmlns="http://www.w3.org/2000/svg"
   xmlns:sodipodi="http://sodipodi.sourceforge.net/DTD/sodipodi-0.dtd"
   xmlns:inkscape="http://www.inkscape.org/namespaces/inkscape"
   width="210mm"
   height="297mm"
   viewBox="0 0 210 297"
   version="1.1"
   id="svg15119"
   sodipodi:docname="Logo_1.svg"
   inkscape:version="1.0.1 (3bc2e813f5, 2020-09-07)"
   inkscape:export-filename="C:\Users\Ikshwak\Desktop\Logo.png"
   inkscape:export-xdpi="96"
   inkscape:export-ydpi="96">
  <defs
     id="defs15113" />
  <sodipodi:namedview
     id="base"
     pagecolor="#ffffff"
     bordercolor="#666666"
     borderopacity="1.0"
     inkscape:pageopacity="0.0"
     inkscape:pageshadow="2"
     inkscape:zoom="0.71947114"
     inkscape:cx="327.27704"
     inkscape:cy="557.98747"
     inkscape:document-units="mm"
     inkscape:current-layer="layer1"
     inkscape:document-rotation="0"
     showgrid="false"
     inkscape:window-width="1920"
     inkscape:window-height="1051"
     inkscape:window-x="-9"
     inkscape:window-y="-9"
     inkscape:window-maximized="1"
     showguides="true"
     inkscape:guide-bbox="true" />
  <metadata
     id="metadata15116">
    <rdf:RDF>
      <cc:Work
         rdf:about="">
        <dc:format>image/svg+xml</dc:format>
        <dc:type
           rdf:resource="http://purl.org/dc/dcmitype/StillImage" />
      </cc:Work>
    </rdf:RDF>
  </metadata>
  <g
     inkscape:label="Layer 1"
     inkscape:groupmode="layer"
     id="layer1">
    <g
       id="g1584"
       transform="matrix(1.1789101,0,0,1.1789101,-19.679576,-6.8606056)">
      <g
         id="g892"
         style="fill:#000000"
         transform="matrix(0.03999274,0,0,-0.04090294,56.896384,140.60007)">
        <path
           id="path1101-3"
           style="fill:#000000;stroke:#231f20;stroke-width:2.084;stroke-linecap:butt;stroke-linejoin:miter;stroke-miterlimit:10;stroke-dasharray:none;stroke-opacity:1"
           d="m 524.24128,922.86223 c -156.83,0 -283.95997,-127.12997 -283.95997,-283.95997 0,-124.12 79.63083,-229.64099 190.59083,-268.25098 l 16.91455,54.23291 -16.91455,6.86718 c -79.22999,35.54001 -134.41993,115.11103 -134.41993,207.56105 0,125.57998 101.79892,227.3789 227.37892,227.3789 20.52229,0 40.40847,-2.72977 59.32031,-7.82812 l 17.48437,-5.80957 10.08399,-4.03271 12.89942,-5.64404 10.5,-5.25 17.01269,-10.38429 c -3.14223,2.12739 -6.34374,4.17454 -9.59619,6.14649 l 8.13134,-4.64649 1.46485,-1.5 c 0,0 20.48079,63.66991 -51.19922,84.91993 -24.09101,6.64999 -49.48141,10.19971 -75.69141,10.19971 z M 751.17195,635.83194 c 0,-0.12 -1.7e-4,-0.23009 -0.0103,-0.35009 z" />
        <path
           d="m 518.54195,412.00094 c -10.59,0.24 -21,1.21 -31.18,2.841 v 145.22 c 0,62.25 50.47,112.719 112.72,112.719 62.26,0 112.72,-50.469 112.72,-112.719 -5.44,-143.84 -194.26,-148.061 -194.26,-148.061 z m 232.63,223.831 c -27.76,55.399 -85.06,93.44 -151.25,93.44 -93.36,0 -169.05,-75.69 -169.05,-169.051 v -427.32 c 0,0 56.49,-3 56.49,74 v 150.411 c 12.07,-1.561 24.38,-2.371 36.88,-2.371 6.74,0 13.43,0.23 20.05,0.71 0.101,-0.009 0.19,0 0.29,0.02 37.9,3.16 120.93,18.61 181.19,91.671 26.871,29.93 43.21,69.5 43.21,112.879 0,27.18 -6.41,52.861 -17.81,75.611 z"
           style="fill:#000000;stroke:#231f20;stroke-width:2.084;stroke-linecap:butt;stroke-linejoin:miter;stroke-miterlimit:10;stroke-dasharray:none;stroke-opacity:1"
           id="path1105" />
        <path
           style="fill:#000000;stroke:#000000;stroke-width:1.95;stroke-linecap:butt;stroke-linejoin:miter;stroke-miterlimit:4;stroke-dasharray:none;stroke-opacity:1"
           d="m 487.36196,414.84194 v -57.53"
           id="path62" />
      </g>
      <g
         id="g2255"
         transform="translate(21.400926,-26.852105)">
        <path
           id="path2212"
           style="fill:#000000;stroke:none;stroke-width:0.459502;stroke-linecap:round;stroke-linejoin:bevel;stroke-miterlimit:4;stroke-dasharray:none"
           d="M 41.086467,119.82011 A 29.388615,29.388615 0 0 0 27.0288,138.77794 l 9.034448,-5.16697 19.206499,-10.98457 -8.882198,-5.17668 a 29.388615,29.388615 0 0 0 -5.301082,2.37039 z m 5.942101,-2.57568 8.991499,5.23979 19.11648,11.14159 0.04145,-10.28029 a 29.388615,29.388615 0 0 0 -28.149433,-6.10109 z m 8.739311,5.67214 4.99e-4,8.7e-4 19.365299,11.28624 z m 19.365813,11.28714 -0.09151,22.41396 0.09203,-22.41307 -9.3e-5,-0.002 z m -48.24771,5.23218 a 29.388615,29.388615 0 0 0 3.280031,20.48569 29.388615,29.388615 0 0 0 5.511812,6.94355 l 0.04268,-10.40721 0.08957,-22.12589 z m 48.790672,-15.63798 -0.04218,10.40811 -0.09084,22.12366 8.930768,-5.13383 a 29.388615,29.388615 0 0 0 -3.286186,-20.45481 29.388615,29.388615 0 0 0 -5.511549,-6.9431 z m -39.458029,33.23951 -0.04234,10.28082 a 29.388615,29.388615 0 0 0 28.149819,6.09968 l -8.99368,-5.24151 z m 48.114282,-5.18443 -9.042614,5.19849 -19.205598,10.98405 8.883154,5.17733 a 29.388615,29.388615 0 0 0 5.29922,-2.37051 29.388615,29.388615 0 0 0 14.065864,-18.98931 z" />
        <circle
           style="fill:none;stroke:#000000;stroke-width:0.382875;stroke-linecap:round;stroke-linejoin:bevel;stroke-miterlimit:4;stroke-dasharray:none"
           id="path2251"
           cx="55.677059"
           cy="145.33141"
           r="30.609564" />
      </g>
      <g
         id="g1493"
         transform="translate(-0.73549393,1.1032409)">
        <text
           xml:space="preserve"
           style="font-style:normal;font-variant:normal;font-weight:normal;font-stretch:normal;font-size:22.4475px;line-height:0.95;font-family:Georgia;-inkscape-font-specification:'Georgia, Normal';font-variant-ligatures:normal;font-variant-caps:normal;font-variant-numeric:normal;font-variant-east-asian:normal;letter-spacing:0px;fill:#000000;stroke-width:0.0839266;stroke-miterlimit:4;stroke-dasharray:none"
           x="118.07063"
           y="117.19376"
           id="text968"
           transform="scale(0.96510508,1.0361566)"><tspan
             sodipodi:role="line"
             id="tspan966"
             x="118.07063"
             y="117.19376"
             style="font-style:normal;font-variant:normal;font-weight:normal;font-stretch:normal;font-size:22.4475px;font-family:Georgia;-inkscape-font-specification:'Georgia, Normal';font-variant-ligatures:normal;font-variant-caps:normal;font-variant-numeric:normal;font-variant-east-asian:normal;fill:#000000;stroke-width:0.0839266;stroke-miterlimit:4;stroke-dasharray:none">gr   </tspan></text>
        <path
           style="opacity:0.970684;fill:#ff6600;fill-opacity:0;stroke:#ff6600;stroke-width:0.617018;stroke-linecap:round;stroke-linejoin:round;stroke-miterlimit:4;stroke-dasharray:none"
           id="path25-2"
           sodipodi:type="arc"
           sodipodi:cx="-125.95662"
           sodipodi:cy="132.68098"
           sodipodi:rx="4.8017392"
           sodipodi:ry="5.025136"
           sodipodi:start="0"
           sodipodi:end="2.8747732"
           sodipodi:open="true"
           sodipodi:arc-type="arc"
           transform="matrix(-0.99269611,0.12064176,0.11001698,0.99392971,0,0)"
           d="m -121.15488,132.68098 a 4.8017392,5.025136 0 0 1 -4.16304,4.98049 4.8017392,5.025136 0 0 1 -5.27053,-3.65553" />
        <path
           id="path974-4"
           style="opacity:0.970684;fill:#ff6600;fill-opacity:1;stroke:#ff6600;stroke-width:0.311;stroke-linecap:square;stroke-linejoin:round;stroke-miterlimit:4;stroke-dasharray:none"
           inkscape:transform-center-x="-2.9005405"
           inkscape:transform-center-y="-3.6841917"
           d="m 144.57028,115.30696 -0.96516,1.51326 c 1.04025,-0.7263 1.74011,0.0695 1.74011,0.0695 z"
           sodipodi:nodetypes="cccc" />
        <path
           d="m 139.28312,110.63501 -0.31839,0.0387 0.1108,1.00109 0.31839,-0.0387 z"
           fill="#160379"
           fill-rule="evenodd"
           id="path271-1"
           style="fill:#ff6600;fill-opacity:1;stroke:#ff6600;stroke-width:0.303;stroke-miterlimit:4;stroke-dasharray:none" />
        <path
           d="m 136.673,111.62551 0.57076,0.80993 -0.25657,0.20028 -0.57076,-0.80995 z"
           fill="#160379"
           fill-rule="evenodd"
           id="path273-3"
           style="fill:#ff6600;fill-opacity:1;stroke:#ff6600;stroke-width:0.303;stroke-miterlimit:4;stroke-dasharray:none" />
        <path
           d="m 134.88288,113.85372 0.88309,0.3969 -0.12726,0.30754 -0.88317,-0.39688 z"
           fill="#160379"
           fill-rule="evenodd"
           id="path275-1"
           style="fill:#ff6600;fill-opacity:1;stroke:#ff6600;stroke-width:0.303;stroke-miterlimit:4;stroke-dasharray:none" />
        <path
           d="m 144.14198,113.02056 -0.7698,0.60083 -0.19138,-0.2719 0.77004,-0.59778 z"
           fill="#160379"
           fill-rule="evenodd"
           id="path291-2"
           style="fill:#ff6600;fill-opacity:1;stroke:#ff6600;stroke-width:0.303;stroke-miterlimit:4;stroke-dasharray:none" />
        <path
           d="m 142.0184,111.14498 -0.38167,0.92568 -0.29358,-0.13342 0.382,-0.92264 z"
           fill="#160379"
           fill-rule="evenodd"
           id="path293-3"
           style="fill:#ff6600;fill-opacity:1;stroke:#ff6600;stroke-width:0.303;stroke-miterlimit:4;stroke-dasharray:none" />
        <path
           d="m 139.47912,120.23144 h -2.2059 c 0.0267,-0.22555 0.10357,-0.43307 0.22917,-0.62929 0.13008,-0.19623 0.37027,-0.42631 0.7206,-0.69471 0.2181,-0.16239 0.35478,-0.28871 0.41433,-0.37441 0.0617,-0.0834 0.0904,-0.1669 0.0904,-0.2436 0,-0.0813 -0.0285,-0.14886 -0.0882,-0.20975 -0.0596,-0.0564 -0.13664,-0.088 -0.22477,-0.088 -0.0948,0 -0.16962,0.0315 -0.22918,0.0901 -0.0617,0.0609 -0.099,0.16692 -0.12118,0.32257 l -0.73594,-0.0609 c 0.0307,-0.21201 0.0815,-0.37666 0.16086,-0.4962 0.0772,-0.11955 0.18291,-0.20976 0.32395,-0.27518 0.13881,-0.0632 0.33273,-0.0947 0.58395,-0.0947 0.25344,0 0.45616,0.0315 0.6016,0.0901 0.14323,0.0609 0.25563,0.15113 0.33937,0.27744 0.0815,0.12406 0.12116,0.26389 0.12116,0.41952 0,0.16692 -0.0485,0.3248 -0.13891,0.47366 -0.097,0.14887 -0.26663,0.31578 -0.51785,0.49396 -0.14764,0.10603 -0.24675,0.1782 -0.29528,0.2233 -0.0529,0.0406 -0.11004,0.0925 -0.17849,0.1624 h 1.15035 c -5e-5,0.20306 -5e-5,0.40831 -5e-5,0.61357 z m 1.56893,-0.5075 h -1.33761 v -0.62027 l 1.33761,-1.62623 h 0.63906 v 1.66458 h 0.33049 v 0.58192 h -0.33049 v 0.5075 h -0.63906 z m 0,-0.58192 v -0.85485 c -0.23353,0.2842 -0.46938,0.56839 -0.70518,0.85485 z"
           fill="#160379"
           fill-rule="evenodd"
           id="path295-0"
           style="opacity:0.970684;fill:#000000;fill-opacity:1;stroke-width:0.111344;stroke-miterlimit:4;stroke-dasharray:none" />
        <text
           xml:space="preserve"
           style="font-size:10.5833px;line-height:1.25;font-family:sans-serif;letter-spacing:0px;stroke-width:0.264583"
           x="144.45625"
           y="120.12783"
           id="text2350"><tspan
             sodipodi:role="line"
             id="tspan2348"
             x="144.45625"
             y="120.12783"
             style="font-style:normal;font-variant:normal;font-weight:normal;font-stretch:normal;font-size:22.003px;font-family:Georgia;-inkscape-font-specification:Georgia;stroke-width:0.264583"
             rotate="0 0 0 0">pix</tspan></text>
      </g>
    </g>
  </g>
</svg>
