<?xml version="1.0" encoding="utf-8"?>
<!-- Generator: Adobe Illustrator 16.0.0, SVG Export Plug-In . SVG Version: 6.00 Build 0)  -->
<!DOCTYPE svg PUBLIC "-//W3C//DTD SVG 1.1//EN" "http://www.w3.org/Graphics/SVG/1.1/DTD/svg11.dtd">
<svg version="1.1"
	 id="svg15119" inkscape:export-ydpi="96" inkscape:export-xdpi="96" inkscape:export-filename="C:\Users\Ikshwak\Desktop\Logo.png" inkscape:version="1.0.1 (3bc2e813f5, 2020-09-07)" sodipodi:docname="Logo_1.svg" xmlns:dc="http://purl.org/dc/elements/1.1/" xmlns:cc="http://creativecommons.org/ns#" xmlns:rdf="http://www.w3.org/1999/02/22-rdf-syntax-ns#" xmlns:svg="http://www.w3.org/2000/svg" xmlns:sodipodi="http://sodipodi.sourceforge.net/DTD/sodipodi-0.dtd" xmlns:inkscape="http://www.inkscape.org/namespaces/inkscape"
	 xmlns="http://www.w3.org/2000/svg" xmlns:xlink="http://www.w3.org/1999/xlink" x="0px" y="0px" width="24px" height="24px"
	 viewBox="0 0 24 24" enable-background="new 0 0 24 24" xml:space="preserve">
<g id="g1584" transform="matrix(1.1789101,0,0,1.1789101,-19.679576,-6.8606056)">
	<g id="g892" transform="matrix(0.03999274,0,0,-0.04090294,56.896384,140.60007)">
		<g>
			<path id="path1101-3_1_" d="M-744.281,3173.07c-52.07,0-94.242-42.185-94.242-94.252c0-41.192,26.43-76.208,63.256-89.027
				l5.594,18.004l-5.594,2.269c-26.305,11.807-44.615,38.215-44.615,68.896c0,41.679,33.783,75.479,75.479,75.479
				c6.793,0,13.422-0.911,19.676-2.612l5.801-1.924l3.355-1.337l4.266-1.863l3.48-1.762l5.676-3.442
				c-1.037,0.708-2.113,1.396-3.191,2.045l2.693-1.539l0.498-0.506c0,0,6.793,21.143-16.984,28.19
				C-727.172,3171.896-735.582,3173.07-744.281,3173.07z M-668.969,3077.806c0-0.041,0-0.081,0-0.121V3077.806z"/>
			<path fill="#231F20" d="M-773.59,2986.53l-2.547,0.871c-38.857,13.528-64.996,50.265-64.996,91.417
				c0,53.363,43.455,96.783,96.852,96.783c8.783,0,17.482-1.175,25.85-3.463c8.119-2.431,13.836-6.622,16.984-12.495
				c4.848-8.972,1.865-18.49,1.74-18.896l-1.285-4.091l-2.816,2.876l-5.385,3.281l-3.273,1.64l-7.414,3.119l-5.676,1.863
				c-6.049,1.62-12.428,2.471-18.848,2.471c-40.203,0-72.91-32.728-72.91-72.947c0-28.697,16.943-54.842,43.125-66.588l7.705-3.119
				L-773.59,2986.53z M-744.281,3170.539c-50.539,0-91.674-41.152-91.674-91.721c0-38.114,23.613-72.218,59.01-85.727l4.123,13.245
				l-3.439,1.397c-28.107,12.617-46.23,40.544-46.23,71.226c0,43.015,35.047,78.01,78.088,78.01c6.875,0,13.752-0.911,20.381-2.693
				l5.924-1.984l3.521-1.377l4.35-1.904l3.604-1.802l2.527-1.56l0.041,0.081l0.082-0.041c0.291,2.978,0.207,7.453-2.07,11.625
				c-2.486,4.617-7.166,7.959-13.877,9.943C-727.752,3169.445-735.996,3170.539-744.281,3170.539z M-666.359,3077.522l-5.178,0.242
				v0.122l5.178-0.162V3077.522z"/>
		</g>
		<g>
			<path id="path1105_1_" d="M-746.186,3003.502c-3.502,0.081-6.961,0.404-10.336,0.951v48.2c0,20.656,16.756,37.404,37.428,37.404
				c20.67,0,37.406-16.748,37.406-37.404C-683.51,3004.919-746.186,3003.502-746.186,3003.502z M-668.969,3077.806
				c-9.197,18.389-28.211,31.006-50.209,31.006c-30.986,0-56.09-25.112-56.09-56.098V2910.87c0,0,18.746-0.973,18.746,24.565v49.921
				c3.996-0.507,8.098-0.77,12.24-0.77c2.238,0,4.475,0.061,6.67,0.223c0.041,0,0.041,0,0.082,0.02
				c12.594,1.033,40.143,6.157,60.15,30.419c8.906,9.923,14.334,23.066,14.334,37.466
				C-663.045,3061.726-665.158,3070.252-668.969,3077.806z"/>
			<path fill="#231F20" d="M-774.998,2908.338l-2.838,0.143l-0.041,2.39v141.844c0,32.321,26.348,58.629,58.699,58.629
				c22.412,0,42.504-12.414,52.527-32.423c4.102-8.183,6.174-16.992,6.174-26.206c0-14.48-5.303-28.373-14.955-39.127
				c-20.133-24.403-47.391-30.094-61.891-31.289l-0.207-0.021c-5.219-0.364-10.895-0.304-16.404,0.243v-47.085
				C-753.934,2909.088-772.844,2908.338-774.998,2908.338z M-719.178,3106.279c-29.494,0-53.521-24.038-53.521-53.565v-139.09
				c4.682,0.811,13.588,4.598,13.588,21.812v52.816l2.92-0.385c6.152-0.79,12.574-0.972,18.373-0.526l0.289,0.021v-0.021
				c13.92,1.256,39.355,6.703,58.121,29.486c8.906,9.924,13.795,22.642,13.795,35.887c0,8.425-1.906,16.505-5.676,23.978
				C-680.445,3094.938-698.795,3106.279-719.178,3106.279z M-746.104,3000.99c-3.729,0.081-7.332,0.405-10.854,0.973l-2.154,0.344
				v50.347c0,22.033,17.938,39.937,40.018,39.937c22.037,0,39.975-17.903,39.975-39.937
				C-680.982,3003.016-745.461,3000.99-746.104,3000.99z M-753.934,3006.641c2.568-0.344,5.221-0.547,7.83-0.587
				c2.32,0.04,60.15,1.903,61.807,46.7c0,19.138-15.617,34.772-34.797,34.772c-19.223,0-34.84-15.635-34.84-34.873V3006.641z"/>
		</g>
		<g>
			<path id="path62_1_" display="none" d="M-756.521,3004.453v-19.097"/>
			<rect x="-756.625" y="2995.36" width="0.207" height="-0.911"/>
		</g>
	</g>
	<g id="g2255" transform="translate(21.400926,-26.852105)">
		<path id="path2212" d="M0.628,34.384c-2.366,1.354-4.058,3.635-4.666,6.293l2.999-1.716l6.375-3.646l-2.947-1.718
			C1.776,33.801,1.187,34.064,0.628,34.384L0.628,34.384z M2.6,33.529l2.985,1.739l6.345,3.698l0.012-3.412
			C9.396,33.294,5.855,32.527,2.6,33.529L2.6,33.529z M5.501,35.411L5.501,35.411l6.428,3.747L5.501,35.411z M11.929,39.158
			l-0.03,7.439L11.929,39.158L11.929,39.158L11.929,39.158z M-4.085,40.895c-0.476,2.324-0.089,4.741,1.088,6.799
			c0.49,0.857,1.107,1.634,1.829,2.305l0.014-3.453l0.03-7.343L-4.085,40.895z M12.109,35.703l-0.014,3.455l-0.031,7.343
			l2.966-1.704c0.473-2.321,0.084-4.734-1.091-6.789C13.448,37.151,12.83,36.374,12.109,35.703L12.109,35.703z M-0.989,46.735
			l-0.014,3.413c2.548,2.261,6.089,3.028,9.345,2.025l-2.985-1.74L-0.989,46.735z M14.981,45.017l-3.001,1.725l-6.375,3.646
			l2.949,1.718c0.611-0.204,1.2-0.467,1.759-0.787C12.683,49.963,14.376,47.676,14.981,45.017L14.981,45.017z"/>
		<path d="M5.471,53.029c-5.613,0-10.179-4.566-10.179-10.179c0-2.719,1.059-5.275,2.981-7.197c1.923-1.923,4.479-2.982,7.198-2.982
			c2.717,0,5.275,1.059,7.198,2.982c1.923,1.922,2.981,4.479,2.981,7.197C15.65,48.463,11.084,53.029,5.471,53.029z M5.471,32.71
			c-5.591,0-10.142,4.549-10.142,10.141c0,5.592,4.549,10.141,10.142,10.141c5.591,0,10.141-4.549,10.141-10.141
			C15.612,37.259,11.062,32.71,5.471,32.71z"/>
	</g>
</g>
</svg>
