<?xml version="1.0" encoding="utf-8"?>
<!-- Generator: Adobe Illustrator 16.0.0, SVG Export Plug-In . SVG Version: 6.00 Build 0)  -->
<!DOCTYPE svg PUBLIC "-//W3C//DTD SVG 1.1//EN" "http://www.w3.org/Graphics/SVG/1.1/DTD/svg11.dtd">
<svg version="1.1"
	 id="Logo_1_" inkscape:export-xdpi="96" sodipodi:docname="Logo_1.svg" inkscape:export-filename="C:\Users\Ikshwak\Desktop\Logo.png" inkscape:version="1.0.1 (3bc2e813f5, 2020-09-07)" xmlns:dc="http://purl.org/dc/elements/1.1/" xmlns:cc="http://creativecommons.org/ns#" xmlns:rdf="http://www.w3.org/1999/02/22-rdf-syntax-ns#" xmlns:svg="http://www.w3.org/2000/svg" xmlns:sodipodi="http://sodipodi.sourceforge.net/DTD/sodipodi-0.dtd" xmlns:inkscape="http://www.inkscape.org/namespaces/inkscape" inkscape:export-ydpi="96"
	 xmlns="http://www.w3.org/2000/svg" xmlns:xlink="http://www.w3.org/1999/xlink" x="0px" y="0px" width="512px" height="247px"
	 viewBox="41.638 297.445 512 247" enable-background="new 41.638 297.445 512 247" xml:space="preserve">
<g id="Logo" transform="matrix(1.1789101,0,0,1.1789101,-19.679576,-6.8606056)">
	<g>
		<g id="g892" transform="matrix(0.03999274,0,0,-0.04090294,56.896384,140.60007)">
			<g>
				<path id="path1101-3_1_" d="M2560.66-4130.994c-534.998,0-968.689-433.692-968.689-968.726
					c0-423.436,271.637-783.392,650.17-915.149l57.705,185.021l-57.705,23.411c-270.279,121.268-458.557,392.733-458.557,708.115
					c0,428.407,347.277,775.706,775.688,775.706c70.01,0,137.844-9.316,202.373-26.713l59.633-19.826l34.414-13.751l44.004-19.239
					l35.811-17.923l58.049-35.44c-10.719,7.271-21.645,14.237-32.748,20.98l27.746-15.857l5.002-5.123
					c0,0,69.863,217.221-174.67,289.702C2736.707-4143.124,2650.076-4130.994,2560.66-4130.994z M3334.836-5110.189
					c0-0.405-0.01-0.79-0.041-1.195L3334.836-5110.189z"/>
				<path fill="#231F20" d="M2259.457-6048.487l-26.244,9.153c-399.443,139.009-667.836,516.584-667.836,939.614
					c0,548.501,446.48,994.729,995.283,994.729c90.141,0,179.453-12.05,265.453-35.785
					c83.576-24.768,142.254-67.904,174.887-128.315c49.814-92.227,19.252-190.084,17.928-194.215l-13.506-42.003l-28.791,29.487
					l-55.209,33.699l-33.844,16.809l-76.357,32.079l-58.141,19.279c-61.93,16.647-127.641,25.335-193.809,25.335
					c-413.051,0-749.082-336.322-749.082-749.702c0-295.049,173.902-563.72,443.043-684.461l79.092-32.079L2259.457-6048.487z
					 M2560.66-4157.018c-519.473,0-942.094-422.898-942.094-942.702c0-391.762,242.535-742.361,606.373-881.127l42.43,136.012
					l-35.418,14.379c-288.881,129.611-474.963,416.813-474.963,732.134c0,442.077,359.902,801.709,802.283,801.709
					c70.951,0,141.426-9.296,209.436-27.664l61.135-20.252l35.904-14.277l44.813-19.604l37.064-18.511l26.15-15.897l0.467,0.75
					l0.506-0.305c3.232,30.581,2.33,76.512-21.023,119.445c-25.828,47.45-73.787,81.838-142.555,102.231
					C2730.369-4168.398,2645.912-4157.018,2560.66-4157.018z M3361.348-5113.005l-53.137,2.431l0.041,1.194l53.18-1.62
					L3361.348-5113.005z"/>
			</g>
			<g>
				<path id="path1105_1_" d="M2541.23-5873.795c-36.133,0.851-71.633,4.131-106.379,9.721v495.39
					c0,212.361,172.174,384.542,384.551,384.542c212.387,0,384.529-172.181,384.529-384.542
					C3185.373-5859.376,2541.23-5873.795,2541.23-5873.795z M3334.836-5110.189c-94.709,188.989-290.184,318.764-515.982,318.764
					c-318.498,0-576.713-258.211-576.713-576.712v-1457.817c0,0,192.711-10.207,192.711,252.459v513.141
					c41.188-5.306,83.172-8.101,125.828-8.101c22.982,0,45.816,0.77,68.395,2.431c0.342-0.041,0.652,0,0.982,0.04
					c129.289,10.814,412.555,63.51,618.117,312.77c91.674,102.109,147.412,237.108,147.412,385.078
					C3395.586-5275.404,3373.725-5187.815,3334.836-5110.189z"/>
				<path fill="#231F20" d="M2245-6851.999l-29.258,1.58l-0.197,24.464v1457.817c0,332.333,270.633,602.715,603.309,602.715
					c229.961,0,436.84-127.729,539.865-333.325c42.119-84.064,63.463-174.691,63.463-269.39
					c0-148.779-54.703-291.636-154.01-402.252c-206.732-250.677-487.15-309.083-635.836-321.478l-2.092-0.162
					c-53.635-3.848-112.066-3.118-168.787,2.471v-483.938C2461.457-6844.223,2267.141-6851.999,2245-6851.999z M2818.854-4817.449
					c-303.336,0-550.117-247.032-550.117-550.688v-1429.708c47.928,8.344,139.52,47.43,139.52,224.35v542.79l30.074-3.849
					c63.029-8.182,129.031-9.964,188.756-5.508l2.951,0.202l0.197-0.04c142.938,12.637,404.104,68.815,597.238,303.008
					c91.508,101.947,141.52,232.612,141.52,368.755c0,86.698-19.533,169.63-58.049,246.506
					C3216.92-4933.999,3028.352-4817.449,2818.854-4817.449z M2541.842-5899.799c-38.068,0.851-75.104,4.253-111.299,10.045
					l-22.287,3.605v517.464c0,226.375,184.436,410.546,411.146,410.546c226.699,0,411.125-184.171,411.125-410.546
					C3211.244-5878.939,2548.533-5899.637,2541.842-5899.799z M2461.457-5841.676c26.594-3.442,53.553-5.509,80.396-6.116
					c24.037,0.607,618.096,19.766,635.494,480.08c-0.01,196.726-160.586,357.546-357.945,357.546
					c-197.381,0-357.945-160.82-357.945-358.519V-5841.676z"/>
			</g>
		</g>
		<g id="g2255" transform="translate(21.400926,-26.852105)">
			<path id="path2212" d="M85.455,302.703c-24.32,13.91-41.71,37.362-47.957,64.674l30.82-17.628l65.523-37.473l-30.301-17.66
				C97.258,296.708,91.201,299.418,85.455,302.703L85.455,302.703z M105.726,293.917l30.675,17.875l65.215,38.008l0.142-35.07
				C175.573,291.506,139.175,283.617,105.726,293.917L105.726,293.917z M135.54,313.266l0.001,0.003l66.065,38.501L135.54,313.266z
				 M201.606,351.771l-0.312,76.464l0.315-76.461v-0.007L201.606,351.771z M37.009,369.62c-4.89,23.881-0.912,48.725,11.19,69.888
				c5.034,8.801,11.373,16.788,18.803,23.686l0.145-35.505l0.305-75.481L37.009,369.62z M203.458,316.272l-0.145,35.507
				l-0.309,75.475l30.466-17.513c4.856-23.852,0.873-48.653-11.21-69.783C217.227,331.159,210.887,323.173,203.458,316.272
				L203.458,316.272z M68.848,429.668l-0.145,35.073c26.185,23.222,62.584,31.11,96.033,20.81l-30.682-17.881L68.848,429.668z
				 M232.988,411.981l-30.848,17.737l-65.519,37.472l30.304,17.661c6.279-2.091,12.333-4.801,18.078-8.086
				C209.357,462.834,226.763,439.338,232.988,411.981L232.988,411.981z"/>
			<path d="M135.23,494.353c-57.687,0-104.619-46.932-104.619-104.62c0-27.945,10.883-54.217,30.642-73.976
				c19.76-19.761,46.032-30.642,73.977-30.642c27.945,0,54.217,10.881,73.977,30.642c19.76,19.76,30.642,46.032,30.642,73.976
				C239.849,447.421,192.917,494.353,135.23,494.353z M135.23,285.505c-57.472,0-104.228,46.757-104.228,104.228
				c0,57.473,46.756,104.229,104.228,104.229c57.472,0,104.228-46.756,104.228-104.229
				C239.458,332.262,192.702,285.505,135.23,285.505z"/>
		</g>
	</g>
	<g id="g1493" transform="translate(-0.73549393,1.1032409)">
		<g enable-background="new    ">
			<path d="M313.74,371.659c0.961,0.981,1.72,2.092,2.273,3.332s0.831,2.775,0.831,4.611c0,1.832-0.374,3.557-1.12,5.171
				c-0.745,1.615-1.876,3.015-3.391,4.203c-1.612,1.214-3.537,2.157-5.774,2.83c-2.237,0.671-5.004,1.007-8.3,1.007
				c-5.389,0-9.419-0.847-12.09-2.538c-2.671-1.692-4.006-4.165-4.006-7.419c0-2.634,0.963-4.713,2.888-6.238
				c1.925-1.524,4.379-2.351,7.362-2.48v-0.542c-0.722-0.234-1.468-0.524-2.238-0.871c-0.771-0.35-1.431-0.755-1.985-1.221
				c-0.626-0.542-1.131-1.181-1.516-1.918c-0.384-0.736-0.578-1.647-0.578-2.73c0-1.368,0.451-2.629,1.354-3.777
				c0.902-1.149,2.266-2.137,4.096-2.964v-0.582c-2.31-1.161-4.103-2.653-5.378-4.474c-1.275-1.822-1.913-3.933-1.913-6.334
				c0-3.616,1.257-6.586,3.772-8.911c2.513-2.324,5.731-3.487,9.653-3.487c1.083,0,2.159,0.117,3.229,0.35
				c1.071,0.232,2.16,0.529,3.266,0.891h12.415v3.719h-8.373v0.232c0.89,1.111,1.552,2.338,1.985,3.68
				c0.432,1.344,0.65,2.66,0.65,3.951c0,3.358-1.271,6.199-3.809,8.524c-2.538,2.324-5.49,3.487-8.858,3.487h-4.366
				c-0.554,0.206-1.132,0.581-1.733,1.124c-0.602,0.542-0.902,1.277-0.902,2.208c0,0.954,0.253,1.685,0.758,2.187
				c0.505,0.505,1.118,0.847,1.84,1.027c0.698,0.207,1.511,0.336,2.435,0.388c0.928,0.053,1.883,0.091,2.869,0.116
				c1.059,0.026,2.508,0.104,4.349,0.234c1.841,0.129,3.146,0.205,3.916,0.232c1.107,0.051,2.219,0.336,3.339,0.853
				C311.809,370.044,312.824,370.755,313.74,371.659z M310.924,381.035c0-1.448-0.313-2.634-0.938-3.565
				c-0.626-0.929-1.576-1.562-2.851-1.899c-0.674-0.103-2.057-0.219-4.15-0.348c-2.094-0.129-4.524-0.194-7.29-0.194
				c-2.598,0.542-4.445,1.453-5.54,2.732c-1.096,1.277-1.642,2.924-1.642,4.939c0,0.905,0.181,1.769,0.541,2.596
				c0.361,0.827,0.987,1.589,1.878,2.286c0.841,0.671,1.971,1.219,3.391,1.647c1.42,0.426,3.152,0.638,5.197,0.638
				c3.535,0,6.321-0.729,8.354-2.189S310.924,384.005,310.924,381.035z M303.996,348.994c0-3.021-0.572-5.43-1.715-7.226
				c-1.142-1.794-2.748-2.692-4.817-2.692c-1.132,0-2.1,0.252-2.905,0.755c-0.808,0.504-1.461,1.22-1.968,2.15
				c-0.48,0.852-0.823,1.88-1.028,3.081c-0.204,1.2-0.307,2.435-0.307,3.699c0,2.867,0.583,5.205,1.75,7.012
				c1.166,1.808,2.676,2.712,4.529,2.712c2.069,0,3.662-0.897,4.781-2.693C303.436,353.999,303.996,351.732,303.996,348.994z"/>
			<path d="M348.132,342.331c0,1.317-0.301,2.487-0.902,3.506c-0.601,1.021-1.528,1.53-2.778,1.53c-1.348,0-2.377-0.374-3.086-1.123
				c-0.711-0.749-1.064-1.576-1.064-2.479c0-0.568,0.041-1.085,0.126-1.551c0.085-0.464,0.162-0.929,0.234-1.394
				c-1.132,0-2.453,0.491-3.969,1.472c-1.517,0.982-2.803,2.377-3.861,4.184v22.239c0,0.903,0.162,1.638,0.486,2.207
				c0.326,0.568,0.836,0.994,1.533,1.279c0.602,0.258,1.378,0.452,2.329,0.582c0.948,0.129,1.773,0.22,2.472,0.27v2.558h-18.766
				v-2.558c0.552-0.05,1.123-0.103,1.713-0.154s1.101-0.154,1.535-0.31c0.672-0.232,1.172-0.638,1.497-1.218
				c0.326-0.582,0.487-1.335,0.487-2.265V345.54c0-0.799-0.175-1.585-0.523-2.359c-0.349-0.774-0.837-1.393-1.461-1.859
				c-0.459-0.309-0.999-0.535-1.625-0.677c-0.626-0.142-1.299-0.238-2.021-0.29v-2.557l11.837-0.852l0.506,0.543v5.385h0.18
				c1.491-2.092,3.152-3.68,4.98-4.766c1.828-1.084,3.502-1.627,5.017-1.627c1.515,0,2.748,0.529,3.699,1.588
				C347.657,339.129,348.132,340.548,348.132,342.331z"/>
		</g>
		<path fill="#FF6600" d="M368.265,376.87c-0.1,0-0.2,0-0.301-0.002c-8.321-0.156-15.317-6.799-16.273-15.454
			c-0.019-0.172,0.105-0.328,0.278-0.347c0.186-0.019,0.329,0.106,0.348,0.278c0.923,8.341,7.655,14.743,15.66,14.893
			c0.095,0.002,0.192,0.002,0.288,0.002c7.883,0,14.678-6.097,15.871-14.296c0.026-0.171,0.179-0.292,0.358-0.267
			c0.172,0.025,0.292,0.185,0.266,0.357C383.521,370.543,376.458,376.87,368.265,376.87z"/>
		<path fill="#FF6600" d="M387.891,360.049l-2.644-5.399c-0.025-0.051-0.077-0.085-0.133-0.089
			c-0.054,0.001-0.113,0.025-0.143,0.074l-3.292,5.161c-0.041,0.064-0.031,0.147,0.024,0.2c0.054,0.051,0.138,0.059,0.2,0.016
			c0.964-0.673,1.928-1.014,2.865-1.014c1.757,0,2.85,1.214,2.861,1.226c0.031,0.036,0.075,0.054,0.119,0.054
			c0.031,0,0.06-0.008,0.087-0.027C387.903,360.206,387.926,360.12,387.891,360.049z"/>
		<polygon fill="#FF6600" points="367.205,338.609 365.811,338.778 366.224,342.501 367.616,342.331 		"/>
		<polygon fill="#FF6600" points="358.197,341.938 357.077,342.811 359.203,345.827 360.322,344.955 		"/>
		<polygon fill="#FF6600" points="351.976,349.555 351.424,350.89 354.717,352.371 355.27,351.036 		"/>
		<polygon fill="#FF6600" points="383.024,345.783 380.153,348.012 380.984,349.191 383.856,346.951 		"/>
		<polygon fill="#FF6600" points="375.317,339.87 373.895,343.302 375.179,343.884 376.6,340.441 		"/>
		<path id="path295-0" opacity="0.9707" enable-background="new    " d="M367.737,371.52h-7.526c0.09-0.77,0.353-1.479,0.781-2.149
			c0.444-0.668,1.263-1.455,2.459-2.369c0.744-0.555,1.211-0.984,1.414-1.277c0.211-0.285,0.309-0.568,0.309-0.832
			c0-0.277-0.097-0.507-0.301-0.716c-0.203-0.192-0.466-0.3-0.767-0.3c-0.323,0-0.578,0.108-0.782,0.308
			c-0.21,0.207-0.338,0.57-0.413,1.1l-2.511-0.207c0.105-0.724,0.278-1.284,0.548-1.693c0.264-0.408,0.625-0.716,1.107-0.938
			c0.473-0.215,1.135-0.323,1.992-0.323c0.865,0,1.556,0.108,2.053,0.309c0.488,0.207,0.872,0.515,1.157,0.946
			c0.278,0.422,0.415,0.9,0.415,1.431c0,0.57-0.167,1.107-0.475,1.615c-0.331,0.509-0.909,1.077-1.767,1.687
			c-0.504,0.361-0.841,0.608-1.006,0.762c-0.181,0.138-0.376,0.315-0.61,0.555h3.924C367.736,370.119,367.736,370.82,367.737,371.52
			L367.737,371.52z M373.091,369.787h-4.564v-2.117l4.564-5.547h2.179v5.68h1.128v1.983h-1.128v1.731h-2.179V369.787z
			 M373.091,367.803v-2.916c-0.799,0.969-1.602,1.937-2.408,2.916H373.091z"/>
		<path d="M420.375,339.316c1.442,1.711,2.56,3.695,3.354,5.955c0.794,2.261,1.191,4.844,1.191,7.751
			c0,2.859-0.476,5.467-1.43,7.826c-0.953,2.358-2.211,4.368-3.774,6.029c-1.638,1.685-3.458,2.98-5.461,3.885
			c-2.004,0.903-4.129,1.355-6.378,1.355c-2.174,0-3.957-0.244-5.35-0.732c-1.392-0.489-2.529-1.064-3.408-1.723h-0.293v10.873
			c0,0.883,0.171,1.617,0.512,2.207c0.342,0.586,0.867,1.016,1.576,1.286c0.586,0.219,1.424,0.434,2.51,0.643
			c1.088,0.207,1.986,0.323,2.695,0.348v2.419h-20.195v-2.419c0.758-0.05,1.491-0.109,2.199-0.182
			c0.709-0.075,1.344-0.197,1.906-0.368c0.733-0.244,1.247-0.671,1.54-1.282c0.292-0.611,0.439-1.332,0.439-2.162v-38.446
			c0-0.732-0.183-1.441-0.55-2.125c-0.366-0.684-0.842-1.234-1.429-1.65c-0.441-0.293-1.05-0.519-1.833-0.678
			c-0.781-0.159-1.539-0.263-2.272-0.311v-2.42l12.315-0.805l0.513,0.439v4.068l0.293,0.074c1.27-1.467,2.845-2.688,4.728-3.665
			c1.881-0.977,3.75-1.467,5.606-1.467c2.248,0,4.307,0.477,6.176,1.43C417.426,336.421,419.032,337.702,420.375,339.316z
			 M414.402,365.301c0.977-1.514,1.698-3.275,2.162-5.279c0.464-2.002,0.697-4.239,0.697-6.707c0-1.807-0.196-3.651-0.587-5.533
			c-0.391-1.881-1.002-3.518-1.832-4.911c-0.831-1.417-1.919-2.565-3.262-3.445c-1.344-0.879-2.956-1.319-4.837-1.319
			c-1.808,0-3.349,0.397-4.619,1.191c-1.27,0.794-2.37,1.74-3.298,2.84v21.367c0.22,0.659,0.58,1.344,1.08,2.051
			c0.5,0.709,1.057,1.32,1.668,1.832c0.756,0.611,1.576,1.107,2.455,1.484c0.879,0.379,1.955,0.568,3.225,0.568
			c1.369,0,2.688-0.359,3.959-1.08S413.546,366.62,414.402,365.301z"/>
		<path d="M447.755,371.164h-17.446v-2.419c0.563-0.048,1.142-0.098,1.741-0.146c0.599-0.05,1.118-0.147,1.557-0.293
			c0.684-0.22,1.192-0.603,1.522-1.153c0.33-0.548,0.495-1.262,0.495-2.142v-22.293c0-0.78-0.177-1.494-0.532-2.141
			c-0.354-0.647-0.849-1.19-1.484-1.629c-0.464-0.292-1.137-0.543-2.015-0.75c-0.88-0.208-1.686-0.336-2.419-0.385v-2.42
			l12.753-0.805l0.514,0.512v29.467c0,0.857,0.164,1.564,0.492,2.126c0.326,0.563,0.842,0.977,1.546,1.246
			c0.534,0.22,1.056,0.398,1.566,0.532c0.509,0.134,1.08,0.227,1.711,0.275V371.164z M443.174,320.331
			c0,1.392-0.458,2.608-1.374,3.646c-0.916,1.039-2.046,1.557-3.391,1.557c-1.246,0-2.327-0.495-3.243-1.484
			c-0.917-0.989-1.374-2.12-1.374-3.39c0-1.344,0.457-2.517,1.374-3.519c0.916-1.001,1.997-1.503,3.243-1.503
			c1.393,0,2.535,0.471,3.427,1.411C442.728,317.991,443.174,319.085,443.174,320.331z"/>
		<path d="M487.047,371.164h-16.566v-2.419c1.103-0.123,2.042-0.244,2.814-0.366s1.158-0.441,1.158-0.953
			c0-0.22-0.123-0.562-0.367-1.027c-0.244-0.464-0.489-0.891-0.733-1.282c-0.612-0.953-1.45-2.232-2.515-3.832
			c-1.065-1.601-2.368-3.514-3.909-5.739c-1.273,1.589-2.449,3.135-3.526,4.64c-1.077,1.503-2.203,3.098-3.377,4.784
			c-0.172,0.245-0.349,0.552-0.532,0.916c-0.183,0.368-0.275,0.661-0.275,0.88c0,0.538,0.349,0.984,1.046,1.339
			c0.698,0.355,1.745,0.593,3.142,0.714v2.346H450.03v-2.271c1.661-0.489,2.999-1.082,4.013-1.778
			c1.013-0.697,1.947-1.559,2.803-2.585c0.757-0.981,1.816-2.33,3.173-4.048c1.359-1.716,3.115-4.047,5.268-6.989
			c-1.247-1.779-2.768-3.952-4.564-6.521c-1.797-2.57-3.281-4.707-4.454-6.411c-0.636-0.928-1.363-1.68-2.184-2.254
			c-0.82-0.574-1.976-0.861-3.469-0.861v-2.419h15.724v2.419c-0.781,0-1.547,0.049-2.304,0.147c-0.755,0.098-1.133,0.318-1.133,0.66
			c0,0.22,0.074,0.465,0.22,0.732c0.147,0.269,0.329,0.562,0.549,0.88c0.537,0.83,1.372,2.113,2.507,3.847
			c1.133,1.735,2.359,3.567,3.677,5.497c0.857-1.172,1.855-2.54,2.993-4.105c1.139-1.563,2.187-3.052,3.142-4.47
			c0.098-0.171,0.195-0.385,0.292-0.641c0.098-0.256,0.147-0.506,0.147-0.751c0-0.513-0.422-0.921-1.268-1.228
			c-0.846-0.305-1.648-0.519-2.409-0.641v-2.346h13.341v2.272c-1.882,0.49-3.348,1.069-4.399,1.741
			c-1.051,0.673-1.942,1.447-2.675,2.328c-0.807,1.001-1.764,2.236-2.875,3.702c-1.111,1.467-2.667,3.52-4.669,6.16
			c2.222,3.126,4.03,5.691,5.422,7.694c1.392,2.004,2.795,4.068,4.211,6.193c0.709,1.075,1.497,1.923,2.364,2.546
			s2.058,0.984,3.574,1.082V371.164z"/>
	</g>
</g>
</svg>
