<?xml version="1.0" encoding="utf-8"?>
<!-- Generator: Adobe Illustrator 16.0.0, SVG Export Plug-In . SVG Version: 6.00 Build 0)  -->
<!DOCTYPE svg PUBLIC "-//W3C//DTD SVG 1.1//EN" "http://www.w3.org/Graphics/SVG/1.1/DTD/svg11.dtd">
<svg version="1.1"
	 id="svg15119" inkscape:export-ydpi="96" inkscape:export-xdpi="96" inkscape:export-filename="C:\Users\Ikshwak\Desktop\Logo.png" inkscape:version="1.0.1 (3bc2e813f5, 2020-09-07)" sodipodi:docname="Logo_1.svg" xmlns:dc="http://purl.org/dc/elements/1.1/" xmlns:cc="http://creativecommons.org/ns#" xmlns:rdf="http://www.w3.org/1999/02/22-rdf-syntax-ns#" xmlns:svg="http://www.w3.org/2000/svg" xmlns:sodipodi="http://sodipodi.sourceforge.net/DTD/sodipodi-0.dtd" xmlns:inkscape="http://www.inkscape.org/namespaces/inkscape"
	 xmlns="http://www.w3.org/2000/svg" xmlns:xlink="http://www.w3.org/1999/xlink" x="0px" y="0px" width="256px" height="97px"
	 viewBox="0 372.445 256 97" enable-background="new 0 372.445 256 97" xml:space="preserve">
<g id="g1493" transform="translate(-0.73549393,1.1032409)">
	<g enable-background="new    ">
		<path d="M40.19,441.625c1.202,1.227,2.148,2.613,2.84,4.162c0.691,1.55,1.037,3.47,1.037,5.762c0,2.291-0.466,4.444-1.398,6.463
			c-0.932,2.016-2.344,3.767-4.238,5.251c-2.014,1.518-4.419,2.696-7.215,3.535c-2.795,0.839-6.252,1.259-10.371,1.259
			c-6.733,0-11.768-1.058-15.104-3.171c-3.337-2.114-5.005-5.204-5.005-9.271c0-3.29,1.202-5.89,3.607-7.794
			c2.404-1.902,5.471-2.937,9.198-3.098v-0.679c-0.902-0.289-1.833-0.652-2.796-1.088s-1.789-0.944-2.479-1.525
			c-0.782-0.678-1.414-1.476-1.894-2.396c-0.481-0.919-0.722-2.057-0.722-3.413c0-1.71,0.564-3.283,1.691-4.72
			c1.128-1.436,2.833-2.67,5.118-3.703v-0.727c-2.886-1.452-5.125-3.316-6.718-5.591c-1.594-2.275-2.39-4.913-2.39-7.915
			c0-4.518,1.569-8.229,4.711-11.134c3.141-2.905,7.162-4.357,12.062-4.357c1.353,0,2.698,0.146,4.036,0.436
			c1.337,0.291,2.697,0.662,4.081,1.114h15.511v4.646H33.291v0.291c1.112,1.388,1.939,2.921,2.48,4.599
			c0.541,1.679,0.811,3.324,0.811,4.938c0,4.196-1.586,7.746-4.757,10.651c-3.171,2.904-6.862,4.355-11.069,4.355H15.3
			c-0.692,0.259-1.414,0.727-2.165,1.403c-0.751,0.679-1.127,1.599-1.127,2.761c0,1.194,0.315,2.106,0.947,2.735
			c0.632,0.629,1.398,1.057,2.3,1.282c0.872,0.26,1.886,0.42,3.043,0.484c1.157,0.064,2.352,0.113,3.585,0.146
			c1.322,0.032,3.134,0.128,5.433,0.29c2.3,0.162,3.93,0.259,4.893,0.29c1.382,0.064,2.772,0.42,4.17,1.065
			S39.047,440.495,40.19,441.625z M36.672,453.339c0-1.808-0.391-3.29-1.172-4.453c-0.782-1.162-1.969-1.953-3.562-2.372
			c-0.842-0.129-2.57-0.273-5.185-0.436c-2.616-0.16-5.652-0.241-9.109-0.241c-3.246,0.677-5.553,1.814-6.922,3.412
			c-1.367,1.598-2.051,3.654-2.051,6.173c0,1.129,0.226,2.21,0.676,3.243c0.452,1.032,1.232,1.984,2.345,2.856
			c1.052,0.839,2.465,1.524,4.238,2.058c1.774,0.532,3.938,0.798,6.493,0.798c4.419,0,7.898-0.913,10.438-2.734
			C35.402,459.818,36.672,457.05,36.672,453.339z M28.015,413.304c0-3.776-0.713-6.785-2.141-9.028
			c-1.429-2.243-3.435-3.364-6.02-3.364c-1.414,0-2.624,0.314-3.63,0.944c-1.008,0.629-1.826,1.524-2.457,2.687
			c-0.602,1.064-1.03,2.348-1.285,3.848c-0.255,1.501-0.384,3.043-0.384,4.624c0,3.582,0.729,6.504,2.188,8.762
			c1.458,2.26,3.343,3.389,5.658,3.389c2.585,0,4.578-1.12,5.975-3.364C27.316,419.557,28.015,416.726,28.015,413.304z"/>
		<path d="M83.161,404.978c0,1.646-0.376,3.106-1.127,4.381c-0.751,1.275-1.909,1.912-3.472,1.912c-1.684,0-2.969-0.468-3.855-1.403
			c-0.888-0.936-1.33-1.969-1.33-3.099c0-0.71,0.052-1.355,0.158-1.937c0.104-0.581,0.203-1.162,0.293-1.742
			c-1.413,0-3.066,0.612-4.96,1.839c-1.894,1.228-3.502,2.97-4.824,5.229v27.787c0,1.13,0.202,2.05,0.608,2.759
			c0.406,0.711,1.044,1.243,1.917,1.598c0.751,0.323,1.72,0.565,2.908,0.728c1.187,0.161,2.216,0.273,3.089,0.338v3.195H49.118
			v-3.195c0.691-0.064,1.405-0.128,2.142-0.193c0.736-0.064,1.375-0.193,1.917-0.388c0.841-0.289,1.466-0.797,1.871-1.522
			c0.406-0.726,0.609-1.668,0.609-2.828v-29.446c0-1-0.219-1.983-0.654-2.949c-0.437-0.967-1.045-1.741-1.827-2.322
			c-0.571-0.387-1.248-0.668-2.029-0.846c-0.782-0.177-1.623-0.298-2.525-0.363v-3.194l14.79-1.065l0.632,0.678v6.729h0.225
			c1.864-2.614,3.938-4.6,6.223-5.955c2.284-1.354,4.374-2.032,6.267-2.032c1.894,0,3.434,0.661,4.622,1.984
			C82.567,400.977,83.161,402.751,83.161,404.978z"/>
	</g>
	<path fill="#FF6600" d="M108.317,448.137c-0.125,0-0.248-0.002-0.373-0.004c-10.396-0.195-19.138-8.497-20.333-19.31
		c-0.024-0.216,0.132-0.411,0.348-0.435c0.232-0.023,0.411,0.133,0.435,0.348c1.153,10.421,9.564,18.422,19.566,18.609
		c0.12,0.002,0.239,0.004,0.358,0.004c9.851,0,18.342-7.618,19.833-17.864c0.032-0.215,0.223-0.366,0.447-0.333
		c0.214,0.031,0.364,0.23,0.333,0.445C127.38,440.23,118.556,448.137,108.317,448.137z"/>
	
		<path id="path974-4" sodipodi:nodetypes="cccc" inkscape:transform-center-y="-3.6841917" inkscape:transform-center-x="-2.9005405" opacity="0.9707" fill="#FF6600" stroke="#FF6600" stroke-width="0.311" stroke-linecap="square" stroke-linejoin="round" enable-background="new    " d="
		M129.36,420.458l-4.113,6.45c4.435-3.096,7.417,0.297,7.417,0.297L129.36,420.458z"/>
	<path id="path271-1" fill="#FF6600" stroke="#FF6600" stroke-width="0.303" d="M106.824,400.545l-1.358,0.164l0.474,4.268
		l1.356-0.165L106.824,400.545z"/>
	<path id="path273-3" fill="#FF6600" stroke="#FF6600" stroke-width="0.303" d="M95.698,404.766l2.433,3.452l-1.094,0.854
		l-2.432-3.452L95.698,404.766z"/>
	<path id="path275-1" fill="#FF6600" stroke="#FF6600" stroke-width="0.303" d="M88.067,414.264l3.764,1.691l-0.541,1.312
		l-3.765-1.691L88.067,414.264z"/>
	<path id="path291-2" fill="#FF6600" stroke="#FF6600" stroke-width="0.303" d="M127.535,410.713l-3.281,2.562l-0.815-1.159
		l3.282-2.548L127.535,410.713z"/>
	<path id="path293-3" fill="#FF6600" stroke="#FF6600" stroke-width="0.303" d="M118.483,402.718l-1.626,3.945l-1.251-0.567
		l1.627-3.933L118.483,402.718z"/>
	<path id="path295-0" opacity="0.9707" enable-background="new    " d="M107.66,441.449h-9.403c0.113-0.961,0.441-1.846,0.977-2.683
		c0.554-0.835,1.578-1.816,3.071-2.96c0.93-0.692,1.512-1.23,1.767-1.596c0.263-0.356,0.385-0.712,0.385-1.039
		c0-0.347-0.121-0.635-0.375-0.896c-0.254-0.24-0.583-0.374-0.959-0.374c-0.403,0-0.722,0.134-0.976,0.384
		c-0.263,0.261-0.423,0.712-0.518,1.375l-3.136-0.259c0.131-0.904,0.348-1.606,0.686-2.115c0.33-0.51,0.78-0.895,1.381-1.174
		c0.592-0.269,1.418-0.403,2.49-0.403c1.08,0,1.944,0.135,2.564,0.385c0.61,0.26,1.09,0.645,1.446,1.183
		c0.347,0.528,0.517,1.124,0.517,1.788c0,0.712-0.207,1.384-0.592,2.019c-0.412,0.636-1.136,1.347-2.208,2.106
		c-0.629,0.451-1.051,0.759-1.258,0.951c-0.226,0.173-0.469,0.394-0.761,0.693h4.904
		C107.659,439.698,107.659,440.574,107.66,441.449L107.66,441.449z M114.348,439.286h-5.702v-2.644l5.702-6.933h2.723v7.096h1.409
		v2.48h-1.409v2.163h-2.723V439.286z M114.348,436.805v-3.644c-0.997,1.212-2.002,2.422-3.007,3.644H114.348z"/>
	<path d="M173.433,401.211c1.801,2.138,3.198,4.618,4.19,7.441c0.992,2.824,1.489,6.054,1.489,9.686
		c0,3.572-0.596,6.832-1.787,9.777c-1.19,2.947-2.763,5.457-4.716,7.533c-2.046,2.106-4.32,3.725-6.823,4.854
		c-2.504,1.13-5.16,1.693-7.969,1.693c-2.717,0-4.946-0.304-6.686-0.914c-1.74-0.611-3.16-1.329-4.259-2.153h-0.366v13.587
		c0,1.103,0.213,2.021,0.641,2.756c0.427,0.733,1.083,1.269,1.969,1.606c0.733,0.274,1.778,0.542,3.137,0.804
		c1.359,0.26,2.481,0.404,3.367,0.437v3.022h-25.234v-3.022c0.945-0.063,1.861-0.139,2.748-0.229
		c0.885-0.093,1.679-0.245,2.381-0.458c0.916-0.306,1.558-0.841,1.924-1.604c0.367-0.764,0.55-1.664,0.55-2.702v-48.039
		c0-0.916-0.229-1.801-0.687-2.655c-0.458-0.854-1.053-1.542-1.787-2.062c-0.549-0.366-1.312-0.648-2.289-0.848
		c-0.978-0.197-1.923-0.327-2.839-0.389v-3.022l15.387-1.008l0.642,0.55v5.083l0.366,0.092c1.587-1.832,3.557-3.357,5.909-4.579
		c2.35-1.222,4.686-1.832,7.007-1.832c2.808,0,5.381,0.596,7.716,1.786S171.754,399.195,173.433,401.211z M165.968,433.679
		c1.222-1.893,2.122-4.091,2.702-6.595c0.58-2.503,0.871-5.296,0.871-8.38c0-2.26-0.245-4.564-0.733-6.916
		c-0.488-2.35-1.252-4.396-2.289-6.137c-1.038-1.77-2.398-3.205-4.076-4.305c-1.68-1.099-3.695-1.648-6.045-1.648
		c-2.26,0-4.183,0.497-5.771,1.488c-1.587,0.993-2.961,2.176-4.121,3.549v26.698c0.274,0.825,0.725,1.681,1.351,2.565
		c0.625,0.886,1.32,1.648,2.084,2.289c0.945,0.765,1.969,1.383,3.068,1.855c1.099,0.474,2.442,0.71,4.03,0.71
		c1.708,0,3.358-0.449,4.945-1.351S164.899,435.328,165.968,433.679z"/>
	<path d="M207.641,441.007h-21.799v-3.022c0.702-0.061,1.428-0.121,2.176-0.183c0.748-0.062,1.397-0.184,1.946-0.367
		c0.854-0.273,1.489-0.753,1.901-1.439c0.412-0.686,0.618-1.579,0.618-2.676v-27.856c0-0.977-0.222-1.868-0.665-2.677
		c-0.443-0.808-1.061-1.486-1.854-2.035c-0.581-0.365-1.42-0.678-2.519-0.938c-1.099-0.259-2.107-0.419-3.023-0.48v-3.022
		l15.937-1.008l0.642,0.642v36.819c0,1.068,0.204,1.954,0.613,2.656c0.41,0.702,1.054,1.222,1.934,1.558
		c0.667,0.274,1.319,0.496,1.955,0.663c0.637,0.169,1.35,0.283,2.138,0.344V441.007z M201.917,377.488
		c0,1.74-0.573,3.26-1.717,4.557c-1.145,1.298-2.557,1.946-4.236,1.946c-1.557,0-2.908-0.618-4.053-1.854
		c-1.145-1.236-1.718-2.648-1.718-4.236c0-1.679,0.573-3.144,1.718-4.396c1.145-1.252,2.496-1.878,4.053-1.878
		c1.74,0,3.167,0.588,4.282,1.763C201.359,374.565,201.917,375.931,201.917,377.488z"/>
	<path d="M256.735,441.007h-20.7v-3.022c1.38-0.153,2.552-0.305,3.517-0.459c0.964-0.151,1.446-0.548,1.446-1.189
		c0-0.275-0.153-0.702-0.458-1.283c-0.306-0.579-0.611-1.113-0.917-1.603c-0.765-1.191-1.812-2.787-3.143-4.788
		c-1.33-2.001-2.958-4.391-4.884-7.171c-1.59,1.985-3.059,3.918-4.404,5.796c-1.346,1.879-2.752,3.872-4.221,5.979
		c-0.215,0.306-0.436,0.688-0.665,1.146c-0.229,0.458-0.344,0.824-0.344,1.1c0,0.671,0.436,1.229,1.307,1.671
		c0.872,0.443,2.181,0.741,3.926,0.894v2.931h-16.716v-2.84c2.075-0.609,3.748-1.352,5.013-2.221
		c1.267-0.869,2.434-1.946,3.502-3.228c0.947-1.227,2.271-2.913,3.967-5.058c1.698-2.146,3.891-5.057,6.582-8.734
		c-1.558-2.222-3.458-4.938-5.702-8.148c-2.245-3.21-4.1-5.88-5.565-8.011c-0.795-1.16-1.706-2.099-2.729-2.816
		c-1.025-0.717-2.469-1.076-4.334-1.076v-3.022h19.646v3.022c-0.974,0-1.934,0.062-2.877,0.183
		c-0.944,0.123-1.417,0.397-1.417,0.825c0,0.274,0.091,0.58,0.275,0.916s0.411,0.702,0.686,1.099
		c0.67,1.038,1.715,2.641,3.132,4.808c1.417,2.167,2.949,4.456,4.595,6.868c1.071-1.466,2.318-3.175,3.74-5.129
		c1.423-1.953,2.731-3.814,3.925-5.585c0.122-0.213,0.244-0.48,0.366-0.802c0.122-0.32,0.183-0.633,0.183-0.938
		c0-0.642-0.528-1.152-1.584-1.534c-1.057-0.382-2.06-0.648-3.011-0.802v-2.931h16.669v2.839c-2.352,0.611-4.183,1.336-5.495,2.176
		c-1.313,0.84-2.428,1.81-3.343,2.908c-1.007,1.252-2.204,2.795-3.592,4.626c-1.388,1.833-3.333,4.398-5.834,7.696
		c2.776,3.907,5.034,7.112,6.773,9.615c1.739,2.502,3.493,5.082,5.264,7.737c0.885,1.345,1.871,2.404,2.954,3.184
		c1.083,0.777,2.572,1.229,4.465,1.351V441.007z"/>
</g>
</svg>
